<?xml version="1.0" standalone="no"?>
<!DOCTYPE svg PUBLIC "-//W3C//DTD SVG 20010904//EN"
 "http://www.w3.org/TR/2001/REC-SVG-20010904/DTD/svg10.dtd">
<svg version="1.0" xmlns="http://www.w3.org/2000/svg"
 width="271.000000pt" height="25.000000pt" viewBox="0 0 271.000000 25.000000"
 preserveAspectRatio="xMidYMid meet">
<metadata>
Created by potrace 1.16, written by Peter Selinger 2001-2019
</metadata>
<g transform="translate(0.000000,25.000000) scale(0.100000,-0.100000)"
fill="#905BFD" stroke="none">
<path d="M2050 190 c-271 -20 -647 -33 -1105 -39 -275 -4 -426 -8 -335 -9 91
-1 300 -7 465 -12 165 -5 467 -14 670 -20 204 -5 412 -15 463 -20 67 -7 99 -7
114 1 11 6 80 21 152 34 l131 22 -85 5 c-47 3 -113 15 -147 27 -67 23 -127 25
-323 11z"/>
</g>
</svg>
